<svg width="200" height="200" viewBox="0 0 24 24" fill="none" xmlns="http://www.w3.org/2000/svg">
  <rect width="24" height="24" rx="12" fill="#EA6E54"/>
  <path d="M12 3.75C10.2051 3.75 8.75 5.20507 8.75 7H7.25C7.25 4.37665 9.37665 2.25 12 2.25C14.6234 2.25 16.75 4.37665 16.75 7H15.25C15.25 5.20507 13.7949 3.75 12 3.75Z" fill="white"/>
  <path d="M8 9H16C16.4142 9 16.75 9.33579 16.75 9.75V17C16.75 17.4142 16.4142 17.75 16 17.75H8C7.58579 17.75 7.25 17.4142 7.25 17V9.75C7.25 9.33579 7.58579 9 8 9Z" fill="white"/>
  <path d="M13.25 11.25C13.25 11.6642 12.9142 12 12.5 12C12.0858 12 11.75 11.6642 11.75 11.25V10.25C11.75 9.83579 12.0858 9.5 12.5 9.5C12.9142 9.5 13.25 9.83579 13.25 10.25V11.25Z" fill="#EA6E54"/>
</svg>
